<svg xmlns="http://www.w3.org/2000/svg" width="512" height="512" viewBox="0 0 512 512">
    <g fill="none" fill-rule="evenodd">
        <rect width="512" height="512" fill="#222"></rect>
        <path fill="#FFF" fill-rule="nonzero" d="M435.060837,198.130662 L331.317555,198.130662 C321.944913,198.095465 314.289339,190.632888 314.014891,181.2642 C314.014891,181.2642 314.014891,146.634639 314.014891,77.3755165 C314.014931,72.7546595 312.174341,68.3241144 308.900088,65.0635036 C305.625834,61.8028928 301.187643,59.9808182 296.566826,60.0001523 L215.506027,60.0001523 C205.909878,60.0001523 198.130663,67.7793678 198.130663,77.3755165 L198.130663,180.682598 C198.150091,185.316041 196.318057,189.765321 193.041689,193.041689 C189.765322,196.318056 185.316041,198.15009 180.682598,198.130662 L77.1574163,198.130662 C72.6945712,198.149903 68.2827153,199.998995 65.0378277,203.271151 C61.7929401,206.543307 59.9808312,210.970481 60.0001529,215.578727 L60.0001529,296.712226 L60.0001529,215.578727 L60.0001529,214.197422 C60.0001529,214.633623 60.0001529,214.997124 60.0001529,215.433326 L60.0001529,296.566826 C60.0001529,306.162974 67.7793684,313.94219 77.3755171,313.94219 L180.682598,313.94219 C185.303415,313.922856 189.741607,315.74493 193.01586,319.005541 C196.290114,322.266152 198.130703,326.696697 198.130663,331.317554 L198.130663,434.624635 C198.130663,444.220784 205.909878,451.999999 215.506027,451.999999 L296.566826,451.999999 C306.162975,451.999999 313.94219,444.220784 313.94219,434.624635 L313.94219,331.317554 C313.94219,321.721405 321.721406,313.94219 331.317555,313.94219 L434.770036,313.94219 C444.114421,313.867992 451.726601,306.416406 452,297.075727 L452,214.997124 C451.768821,205.751348 444.307522,198.322072 435.060837,198.130662 Z"></path>
    </g>
</svg>
